HIERARCHY
ROOT hip
{
  OFFSET 0 0 0
  CHANNELS 6 Xposition Yposition Zposition Zrotation Yrotation Xrotation
  JOINT abdomen
  {
    OFFSET 0 20.6881 -0.73152
    CHANNELS 3 Zrotation Xrotation Yrotation
    JOINT chest
    {
      OFFSET 0 11.7043 -0.48768
      CHANNELS 3 Zrotation Xrotation Yrotation
      JOINT neck
      {
        OFFSET 0 22.1894 -2.19456
        CHANNELS 3 Zrotation Xrotation Yrotation
        JOINT head
        {
          OFFSET -0.24384 7.07133 1.2192
          CHANNELS 3 Zrotation Xrotation Yrotation
          JOINT leftEye
          {
            OFFSET 4.14528 8.04674 8.04672
            CHANNELS 3 Zrotation Xrotation Yrotation
            End Site
            {
              OFFSET 1 0 0
            }
          }
          JOINT rightEye
          {
            OFFSET -3.6576 8.04674 8.04672
            CHANNELS 3 Zrotation Xrotation Yrotation
            End Site
            {
              OFFSET 1 0 0
            }
          }
        }
      }
      JOINT rCollar
      {
        OFFSET -2.68224 19.2634 -4.8768
        CHANNELS 3 Zrotation Xrotation Yrotation
        JOINT rShldr
        {
          OFFSET -8.77824 -1.95073 1.46304
          CHANNELS 3 Zrotation Xrotation Yrotation
          JOINT rForeArm
          {
            OFFSET -28.1742 -1.7115 0.48768
            CHANNELS 3 Zrotation Xrotation Yrotation
            JOINT rHand
            {
              OFFSET -22.5879 0.773209 7.07136
              CHANNELS 3 Zrotation Xrotation Yrotation
              JOINT rThumb1
              {
                OFFSET -1.2192 -0.487915 3.41376
                CHANNELS 3 Zrotation Xrotation Yrotation
                JOINT rThumb2
                {
                  OFFSET -3.37035 -0.52449 3.41376
                  CHANNELS 3 Zrotation Xrotation Yrotation
                  End Site
                  {
                    OFFSET -1.78271 -1.18214 1.43049
                  }
                }
              }
              JOINT rIndex1
              {
                OFFSET -7.75947 0.938293 5.60832
                CHANNELS 3 Zrotation Xrotation Yrotation
                JOINT rIndex2
                {
                  OFFSET -2.54057 -0.884171 1.56538
                  CHANNELS 3 Zrotation Xrotation Yrotation
                  End Site
                  {
                    OFFSET -1.62519 -0.234802 1.16502
                  }
                }
              }
              JOINT rMid1
              {
                OFFSET -8.24714 1.18213 3.41376
                CHANNELS 3 Zrotation Xrotation Yrotation
                JOINT rMid2
                {
                  OFFSET -3.10165 -0.590103 1.0647
                  CHANNELS 3 Zrotation Xrotation Yrotation
                  End Site
                  {
                    OFFSET -2.48547 -0.328903 0.83742
                  }
                }
              }
              JOINT rRing1
              {
                OFFSET -8.82822 0.546677 1.51678
                CHANNELS 3 Zrotation Xrotation Yrotation
                JOINT rRing2
                {
                  OFFSET -2.60934 -0.819778 -0.0198488
                  CHANNELS 3 Zrotation Xrotation Yrotation
                  End Site
                  {
                    OFFSET -2.33842 -0.294052 0.168128
                  }
                }
              }
              JOINT rPinky1
              {
                OFFSET -8.27202 -0.0477905 -0.4584
                CHANNELS 3 Zrotation Xrotation Yrotation
                JOINT rPinky2
                {
                  OFFSET -1.82734 -0.647385 -0.700984
                  CHANNELS 3 Zrotation Xrotation Yrotation
                  End Site
                  {
                    OFFSET -1.69225 -0.51767 -0.607171
                  }
                }
              }
            }
          }
        }
      }
      JOINT lCollar
      {
        OFFSET 2.68224 19.2634 -4.8768
        CHANNELS 3 Zrotation Xrotation Yrotation
        JOINT lShldr
        {
          OFFSET 8.77824 -1.95073 1.46304
          CHANNELS 3 Zrotation Xrotation Yrotation
          JOINT lForeArm
          {
            OFFSET 28.1742 -1.7115 0.48768
            CHANNELS 3 Zrotation Xrotation Yrotation
            JOINT lHand
            {
              OFFSET 22.5879 0.773209 7.07136
              CHANNELS 3 Zrotation Xrotation Yrotation
              JOINT lThumb1
              {
                OFFSET 1.2192 -0.487915 3.41376
                CHANNELS 3 Zrotation Xrotation Yrotation
                JOINT lThumb2
                {
                  OFFSET 3.37035 -0.52449 3.41376
                  CHANNELS 3 Zrotation Xrotation Yrotation
                  End Site
                  {
                    OFFSET 1.78271 -1.18214 1.43049
                  }
                }
              }
              JOINT lIndex1
              {
                OFFSET 7.75947 0.938293 5.60832
                CHANNELS 3 Zrotation Xrotation Yrotation
                JOINT lIndex2
                {
                  OFFSET 2.54057 -0.884171 1.56538
                  CHANNELS 3 Zrotation Xrotation Yrotation
                  End Site
                  {
                    OFFSET 1.62519 -0.234802 1.16502
                  }
                }
              }
              JOINT lMid1
              {
                OFFSET 8.24714 1.18213 3.41376
                CHANNELS 3 Zrotation Xrotation Yrotation
                JOINT lMid2
                {
                  OFFSET 3.10165 -0.590103 1.0647
                  CHANNELS 3 Zrotation Xrotation Yrotation
                  End Site
                  {
                    OFFSET 2.48547 -0.328903 0.83742
                  }
                }
              }
              JOINT lRing1
              {
                OFFSET 8.82822 0.546677 1.51678
                CHANNELS 3 Zrotation Xrotation Yrotation
                JOINT lRing2
                {
                  OFFSET 2.60934 -0.819778 -0.0198488
                  CHANNELS 3 Zrotation Xrotation Yrotation
                  End Site
                  {
                    OFFSET 2.33842 -0.294052 0.168128
                  }
                }
              }
              JOINT lPinky1
              {
                OFFSET 8.27202 -0.0477905 -0.4584
                CHANNELS 3 Zrotation Xrotation Yrotation
                JOINT lPinky2
                {
                  OFFSET 1.82734 -0.647385 -0.700984
                  CHANNELS 3 Zrotation Xrotation Yrotation
                  End Site
                  {
                    OFFSET 1.69225 -0.51767 -0.607171
                  }
                }
              }
            }
          }
        }
      }
    }
  }
  JOINT rButtock
  {
    OFFSET -8.77824 4.35084 1.2192
    CHANNELS 3 Zrotation Xrotation Yrotation
    JOINT rThigh
    {
      OFFSET 0 -1.70687 -2.19456
      CHANNELS 3 Zrotation Xrotation Yrotation
      JOINT rShin
      {
        OFFSET 0 -36.8199 0.73152
        CHANNELS 3 Zrotation Xrotation Yrotation
        JOINT rFoot
        {
          OFFSET 0.73152 -45.1104 -5.12064
          CHANNELS 3 Zrotation Xrotation Yrotation
          End Site
          {
            OFFSET -1.1221 -3.69964 12.103
          }
        }
      }
    }
  }
  JOINT lButtock
  {
    OFFSET 8.77824 4.35084 1.2192
    CHANNELS 3 Zrotation Xrotation Yrotation
    JOINT lThigh
    {
      OFFSET 0 -1.70687 -2.19456
      CHANNELS 3 Zrotation Xrotation Yrotation
      JOINT lShin
      {
        OFFSET 0 -36.8199 0.73152
        CHANNELS 3 Zrotation Xrotation Yrotation
        JOINT lFoot
        {
          OFFSET -0.73152 -45.1104 -5.12064
          CHANNELS 3 Zrotation Xrotation Yrotation
          End Site
          {
            OFFSET 1.1221 -3.69964 12.103
          }
        }
      }
    }
  }
}
MOTION
Frames:	7
Frame Time:	0.00833333
27.0247 81.8043 12.9971 -106.735 -60.1749 -258.057 -3.94184 21.4444 -0.650863 9.21489 -16.6482 1.21336 -9.18268 4.90964 -9.57418 25.5824 14.1974 -23.6265 -0.0 0.0 0.0 -0.0 0.0 0.0 -1.59501e-13 3.1064e-13 -3.77229e-14 60.4791 42.1049 -30.6523 -20.0539 -13.0776 38.8178 -0.0393467 -5.66989 -0.799463 -8.52568e-10 -2.88845e-09 -1.31011e-10 -1.4733e-09 -4.98989e-09 -2.28954e-10 -8.52563e-10 -2.88844e-09 -1.31017e-10 7.73091 5.47488 0.417314 -8.52571e-10 -2.88845e-09 -1.31015e-10 2.90554 0.965183 0.102902 -8.52563e-10 -2.88844e-09 -1.3101e-10 10.2786 0.731801 0.0259123 -8.52572e-10 -2.88844e-09 -1.31007e-10 2.22167 -0.733487 -0.20892 -1.59583e-13 3.10612e-13 -3.80537e-14 -13.6984 36.7866 -19.0219 28.2598 -38.6122 -81.5256 0.156087 11.1919 -1.59344 5.32271e-10 1.75373e-09 -8.26195e-11 9.17738e-10 3.03386e-09 -1.51777e-10 5.32272e-10 1.75372e-09 -8.26071e-11 -7.73091 5.47488 -0.417314 5.3227e-10 1.75373e-09 -8.26236e-11 -2.90554 0.965183 -0.102902 5.3227e-10 1.75372e-09 -8.26193e-11 -10.2786 0.731801 -0.0259123 5.32276e-10 1.75373e-09 -8.26252e-11 -2.22167 -0.733487 0.20892 -2.03217e-16 0.0 -3.88251e-19 -55.1036 -65.3461 -53.5228 6.46028 79.8704 2.41017 -62.0159 -11.6708 -73.2788 2.03217e-16 0.0 3.88251e-19 12.5155 -6.37224 -15.4257 -0.27326 30.2037 -2.99306 0.515107 -24.7641 -2.57509
28.646 82.6434 14.6662 -108.365 -60.262 -257.225 -2.2508 22.59 -0.859775 10.4334 -16.1795 1.35144 -8.91161 5.5946 -9.21925 25.6348 14.142 -23.2415 -0.0 0.0 0.0 -0.0 0.0 0.0 -2.55175e-13 1.07235e-12 4.33133e-14 60.7095 42.14 -31.0293 -20.0378 -13.0558 38.7832 -0.046634 -6.20312 -0.875159 -3.00264e-10 -1.19829e-09 -1.28502e-10 -5.17614e-10 -2.06945e-09 -2.22665e-10 -3.00258e-10 -1.1983e-09 -1.28505e-10 7.73091 5.47488 0.417314 -3.0027e-10 -1.19831e-09 -1.28502e-10 2.90554 0.965183 0.102902 -3.00258e-10 -1.1983e-09 -1.285e-10 10.2786 0.731801 0.0259123 -3.00271e-10 -1.1983e-09 -1.28496e-10 2.22167 -0.733487 -0.20892 -2.55262e-13 1.07234e-12 4.29282e-14 -12.7606 35.4544 -20.8364 28.2643 -38.3733 -81.2147 0.141293 10.6586 -1.51566 1.129e-09 3.20468e-09 -4.74442e-10 1.94508e-09 5.53926e-09 -8.34445e-10 1.129e-09 3.20467e-09 -4.74425e-10 -7.73091 5.47488 -0.417314 1.129e-09 3.20468e-09 -4.74442e-10 -2.90554 0.965183 -0.102902 1.129e-09 3.20468e-09 -4.74442e-10 -10.2786 0.731801 -0.0259123 1.12901e-09 3.20468e-09 -4.74448e-10 -2.22167 -0.733487 0.20892 -2.03217e-16 0.0 -3.88251e-19 -46.6757 -63.8469 -41.787 4.83758 70.0595 0.493264 -35.7424 -10.1092 -58.5443 2.03217e-16 0.0 3.88251e-19 12.8704 -5.18154 -15.0478 -0.211703 28.1319 -2.44778 0.308077 -23.1569 -3.17179
29.3122 82.6765 15.5183 -110.054 -60.4689 -256.183 -0.451601 23.5719 -0.996238 11.8321 -15.6314 1.52214 -8.69393 6.20533 -8.88314 25.7146 14.219 -22.9155 -0.0 0.0 0.0 -0.0 0.0 0.0 -3.46081e-13 1.76086e-12 1.11328e-13 60.9809 41.9901 -31.5126 -19.9702 -12.9712 38.6174 -0.0567355 -6.81869 -0.962826 3.81002e-10 9.53955e-10 -1.63248e-10 6.61034e-10 1.64971e-09 -2.80549e-10 3.8101e-10 9.53946e-10 -1.63249e-10 7.73091 5.47488 0.417314 3.80994e-10 9.53936e-10 -1.63244e-10 2.90554 0.965183 0.102902 3.8101e-10 9.53948e-10 -1.63244e-10 10.2786 0.731801 0.0259123 3.80994e-10 9.53948e-10 -1.63239e-10 2.22167 -0.733487 -0.20892 -3.46172e-13 1.76086e-12 1.10894e-13 -12.0168 34.2967 -22.783 28.2975 -38.0005 -80.583 0.130619 10.2489 -1.45612 1.72857e-09 4.58742e-09 -8.58434e-10 2.97754e-09 7.92703e-09 -1.50346e-09 1.72856e-09 4.5874e-09 -8.58412e-10 -7.73091 5.47488 -0.417314 1.72857e-09 4.58741e-09 -8.5843e-10 -2.90554 0.965183 -0.102902 1.72857e-09 4.58741e-09 -8.58434e-10 -10.2786 0.731801 -0.0259123 1.72857e-09 4.58742e-09 -8.5844e-10 -2.22167 -0.733487 0.20892 -2.03217e-16 0.0 -3.88251e-19 -39.7409 -61.5317 -33.7977 1.60187 58.4055 -0.175167 -13.6596 -3.97006 -41.1437 2.03217e-16 0.0 3.88251e-19 13.246 -4.0965 -14.8203 -0.0921428 25.6696 -1.81204 0.201111 -21.2974 -3.61607
30.284 82.7846 16.7432 -111.813 -61.0778 -254.824 0.553357 24.0307 -1.11336 12.9452 -15.1256 1.61177 -8.51734 6.54838 -8.58936 25.768 14.6478 -22.7132 -0.0 0.0 0.0 -0.0 0.0 0.0 -4.02255e-13 2.12302e-12 1.30602e-13 61.5122 41.5746 -32.123 -19.8503 -12.8247 38.3177 -0.0650151 -7.2562 -1.02533 9.64312e-10 2.9029e-09 -3.14461e-10 1.67059e-09 5.01973e-09 -5.40689e-10 9.64321e-10 2.90288e-09 -3.14461e-10 7.73091 5.47488 0.417314 9.64303e-10 2.90287e-09 -3.14455e-10 2.90554 0.965183 0.102902 9.64321e-10 2.90289e-09 -3.14457e-10 10.2786 0.731801 0.0259123 9.64304e-10 2.90289e-09 -3.14452e-10 2.22167 -0.733487 -0.20892 -4.02352e-13 2.12302e-12 1.30154e-13 -11.1832 33.3858 -25.016 28.3753 -37.442 -79.4487 0.127113 10.1134 -1.43645 2.14228e-09 5.51817e-09 -1.03287e-09 3.69079e-09 9.53596e-09 -1.80872e-09 2.14226e-09 5.51816e-09 -1.03285e-09 -7.73091 5.47488 -0.417314 2.14228e-09 5.51817e-09 -1.03287e-09 -2.90554 0.965183 -0.102902 2.14227e-09 5.51817e-09 -1.03287e-09 -10.2786 0.731801 -0.0259123 2.14227e-09 5.51817e-09 -1.03288e-09 -2.22167 -0.733487 0.20892 -2.03217e-16 0.0 -3.88251e-19 -36.1351 -60.3695 -34.4828 -0.757679 46.8832 -0.424104 -0.225253 5.94964 -28.1696 2.03217e-16 0.0 3.88251e-19 13.196 -3.60108 -14.5906 0.0293006 23.893 -1.32287 0.142859 -19.9166 -3.91395
31.9316 83.1476 18.5619 -113.508 -61.9813 -253.222 0.229609 23.7122 -1.16803 13.7218 -14.6494 1.59182 -8.3488 6.53442 -8.32454 25.8639 15.7143 -22.7288 -0.0 0.0 0.0 -0.0 0.0 0.0 -4.15539e-13 1.96241e-12 5.25917e-14 62.4039 40.7753 -32.8853 -19.6533 -12.5856 37.8328 -0.0689088 -7.45294 -1.05349 1.48443e-09 5.04899e-09 -7.48826e-10 2.57194e-09 8.73564e-09 -1.29185e-09 1.48444e-09 5.04898e-09 -7.48827e-10 7.73091 5.47488 0.417314 1.48442e-09 5.04897e-09 -7.48821e-10 2.90554 0.965183 0.102902 1.48444e-09 5.04898e-09 -7.48823e-10 10.2786 0.731801 0.0259123 1.48442e-09 5.04898e-09 -7.48818e-10 2.22167 -0.733487 -0.20892 -4.15646e-13 1.96241e-12 5.21821e-14 -10.0542 32.6756 -27.7744 28.4789 -36.5113 -77.5642 0.134425 10.4245 -1.48148 2.2936e-09 5.79711e-09 -8.61455e-10 3.95391e-09 1.00227e-08 -1.51404e-09 2.29359e-09 5.79709e-09 -8.61429e-10 -7.73091 5.47488 -0.417314 2.2936e-09 5.79711e-09 -8.61449e-10 -2.90554 0.965183 -0.102902 2.29359e-09 5.79711e-09 -8.61455e-10 -10.2786 0.731801 -0.0259123 2.2936e-09 5.79711e-09 -8.61461e-10 -2.22167 -0.733487 0.20892 -2.03217e-16 0.0 -3.88251e-19 -36.8876 -60.6512 -49.7854 -1.39423 34.3183 -0.475616 5.67453 17.4389 -19.4476 2.03217e-16 0.0 3.88251e-19 12.3987 -3.99783 -14.3116 0.0917778 23.0815 -1.01509 0.129626 -19.205 -4.00654
33.2354 83.4037 19.6019 -114.844 -62.6953 -251.559 -0.848083 22.8611 -1.14932 14.388 -14.1529 1.52291 -8.19818 6.27826 -8.08287 26.0122 17.2243 -22.9175 -0.0 0.0 0.0 -0.0 0.0 0.0 -4.01969e-13 1.45703e-12 -9.06458e-14 63.4967 39.6712 -33.7696 -19.3812 -12.2575 37.1831 -0.0706212 -7.54558 -1.06673 2.03062e-09 7.55448e-09 -1.37558e-09 3.51905e-09 1.30759e-08 -2.37641e-09 2.03062e-09 7.55447e-09 -1.37558e-09 7.73091 5.47488 0.417314 2.03061e-09 7.55447e-09 -1.37557e-09 2.90554 0.965183 0.102902 2.03062e-09 7.55447e-09 -1.37558e-09 10.2786 0.731801 0.0259123 2.03061e-09 7.55447e-09 -1.37557e-09 2.22167 -0.733487 -0.20892 -4.02089e-13 1.45701e-12 -9.09844e-14 -8.78772 32.0928 -30.9145 28.5098 -35.1932 -75.228 0.150986 11.0578 -1.57358 2.29193e-09 5.6614e-09 -4.7927e-10 3.95469e-09 9.79546e-09 -8.5375e-10 2.29191e-09 5.66139e-09 -4.79245e-10 -7.73091 5.47488 -0.417314 2.29193e-09 5.6614e-09 -4.79266e-10 -2.90554 0.965183 -0.102902 2.29192e-09 5.6614e-09 -4.79269e-10 -10.2786 0.731801 -0.0259123 2.29193e-09 5.6614e-09 -4.79276e-10 -2.22167 -0.733487 0.20892 -2.03217e-16 0.0 -3.88251e-19 -39.0324 -57.3354 -72.6533 -1.10023 20.228 -0.47019 6.15052 28.2113 -10.7851 2.03217e-16 0.0 3.88251e-19 11.1751 -4.97486 -14.0658 0.120554 22.665 -0.761049 0.163237 -18.7741 -3.91791
32.4407 82.8392 18.2813 -115.563 -63.1806 -250.09 -1.91884 21.8662 -1.15806 14.8967 -13.7022 1.42575 -8.11658 5.89258 -7.89892 26.06 18.6791 -23.1235 -0.0 0.0 0.0 -0.0 0.0 0.0 -3.67874e-13 9.15298e-13 -2.1393e-13 64.6255 38.4764 -34.717 -19.076 -11.8946 36.4735 -0.0709625 -7.57276 -1.0706 2.45771e-09 9.39665e-09 -1.88775e-09 4.25942e-09 1.62679e-08 -3.26286e-09 2.45772e-09 9.39665e-09 -1.88775e-09 7.73091 5.47488 0.417314 2.45771e-09 9.39665e-09 -1.88775e-09 2.90554 0.965183 0.102902 2.45772e-09 9.39665e-09 -1.88775e-09 10.2786 0.731801 0.0259123 2.45771e-09 9.39665e-09 -1.88774e-09 2.22167 -0.733487 -0.20892 -3.68007e-13 9.15266e-13 -2.1419e-13 -7.6198 31.6816 -34.0316 28.4173 -33.7447 -73.0049 0.170553 11.7186 -1.67036 2.22737e-09 5.3828e-09 -9.16827e-11 3.84683e-09 9.32072e-09 -1.83513e-10 2.22735e-09 5.38279e-09 -9.16589e-11 -7.73091 5.47488 -0.417314 2.22737e-09 5.3828e-09 -9.16808e-11 -2.90554 0.965183 -0.102902 2.22736e-09 5.38281e-09 -9.1681e-11 -10.2786 0.731801 -0.0259123 2.22737e-09 5.3828e-09 -9.16886e-11 -2.22167 -0.733487 0.20892 -2.03217e-16 0.0 -3.88251e-19 -35.775 -50.5333 -87.1399 -0.448087 7.61967 -0.483645 2.9934 35.365 -2.69159 2.03217e-16 0.0 3.88251e-19 10.0329 -6.09162 -13.8914 0.135041 22.4489 -0.52848 0.195799 -18.4862 -3.77649
